<?xml version="1.0" encoding="UTF-8" standalone="no"?>
<svg width="60px" height="60px" viewBox="0 0 60 60" version="1.1" xmlns="http://www.w3.org/2000/svg" xmlns:xlink="http://www.w3.org/1999/xlink">
    <!-- Generator: Sketch 3.6.1 (26313) - http://www.bohemiancoding.com/sketch -->
    <title>Artboard 1</title>
    <desc>Created with Sketch.</desc>
    <defs></defs>
    <g id="Page-1" stroke="none" stroke-width="1" fill="none" fill-rule="evenodd">
        <g id="Artboard-1" fill="#FFFFFF">
            <g id="Group" transform="translate(3.000000, 9.000000)">
                <path d="M46.184,31.842 C45.356,31.842 44.684,31.171 44.684,30.342 C44.684,20.228 36.455,12 26.342,12 C16.229,12 8,20.228 8,30.342 C8,31.171 7.328,31.842 6.5,31.842 C5.672,31.842 5,31.171 5,30.342 C5,18.574 14.574,9 26.342,9 C38.11,9 47.684,18.574 47.684,30.342 C47.684,31.17 47.012,31.842 46.184,31.842 L46.184,31.842 Z" id="Shape"></path>
                <path d="M26.5,9.299 C25.672,9.299 25,8.628 25,7.799 L25,1.5 C25,0.671 25.672,-3.55271368e-15 26.5,-3.55271368e-15 C27.328,-3.55271368e-15 28,0.671 28,1.5 L28,7.799 C28,8.627 27.328,9.299 26.5,9.299 L26.5,9.299 Z" id="Shape"></path>
                <path d="M33.099,3 L20.5,3 C19.672,3 19,2.329 19,1.5 C19,0.671 19.672,0 20.5,0 L33.099,0 C33.927,0 34.599,0.671 34.599,1.5 C34.599,2.329 33.927,3 33.099,3 L33.099,3 Z" id="Shape"></path>
                <path d="M51.892,41.449 L1.5,41.449 C0.672,41.449 3.55271368e-15,40.778 3.55271368e-15,39.949 C3.55271368e-15,35.883 1.443,29 6.854,29 L46.538,29 C51.949,29 53.392,35.882 53.392,39.949 C53.392,40.778 52.72,41.449 51.892,41.449 L51.892,41.449 Z M3.106,38.449 L50.293,38.449 C50.054,36.144 49.247,32 46.538,32 L6.854,32 C4.176,32.001 3.355,36.146 3.106,38.449 L3.106,38.449 Z" id="Shape"></path>
            </g>
        </g>
    </g>
</svg>