<?xml version="1.0" encoding="UTF-8" standalone="no"?>
<svg width="60px" height="60px" viewBox="0 0 60 60" version="1.1" xmlns="http://www.w3.org/2000/svg" xmlns:xlink="http://www.w3.org/1999/xlink">
    <!-- Generator: Sketch 3.6.1 (26313) - http://www.bohemiancoding.com/sketch -->
    <title>Artboard 1 Copy</title>
    <desc>Created with Sketch.</desc>
    <defs></defs>
    <g id="Page-1" stroke="none" stroke-width="1" fill="none" fill-rule="evenodd">
        <g id="Artboard-1-Copy" fill="#FFFFFF">
            <path d="M49.6391817,44.0694221 L37.1642868,31.5930734 C38.4371463,29.3802897 39.1713485,26.8178514 39.1713485,24.0874916 C39.1713485,15.7691988 32.4057843,9 24.0860377,9 C15.7684719,9 9,15.7691988 9,24.0874916 C9,32.4050574 15.7684719,39.1728023 24.0860377,39.1728023 C26.7298925,39.1728023 29.215276,38.4902124 31.3749935,37.2900462 L43.8956851,49.8121917 C44.688042,50.6038216 45.7275559,51 46.7685238,51 C47.8080378,50.9992731 48.8475518,50.6030947 49.6391817,49.8121917 C51.2209876,48.228205 51.2209876,45.6505011 49.6391817,44.0694221 L49.6391817,44.0694221 Z M11.4192326,24.0874916 C11.4192326,17.1038476 17.1016668,11.4206864 24.0860377,11.4206864 C31.0704086,11.4206864 36.7521159,17.1031206 36.7521159,24.0874916 C36.7521159,31.0718625 31.0696817,36.7535698 24.0853108,36.7535698 C17.1009398,36.7535698 11.4192326,31.0718625 11.4192326,24.0874916 L11.4192326,24.0874916 Z M47.9265279,48.0995379 C47.2875539,48.7377849 46.2458591,48.7392388 45.607612,48.0995379 L33.4256711,35.9197778 C34.2863596,35.2393686 35.0743548,34.4702736 35.7671219,33.6190353 L47.9265279,45.7798951 C48.5662288,46.420323 48.5662288,47.4620178 47.9265279,48.0995379 L47.9265279,48.0995379 Z" id="Shape"></path>
        </g>
    </g>
</svg>